
AlexD.Menage.A.Trois.German.XXX][ICM369
_______________________________________

Screenshots
 
http://leetleech.org/images/30015361651656773691.jpg



Type: Full Length Movie...Duration time: 1h 32mins

Starring: Yvette Costeau, Sanya Pride, Cherie Noir, Kathleen White, 
Jill Diamond, Miss Eve, Jolanta Venus, Lady Victoria

Content: German, Lesbian, Toys

Year: 2011

Size: 1 CD

Description: 

MENAGE A TROIS The large-breasted Kathleen White has to watch from a 
distance with how Jolanta Venus and Miss Eve enjoying a cocktail with 
their pumped large Chicks. 

That alone is not, however, the two women, and they delight in the 
enormous breasts of Kathleen White. 

With a romantic bath dip Jill Diamond and Yvette Cousteau first in the 
world of foot fetish and later surreal in a daydream, in which the 
breasts and pussy pumped by Yvette Cousteau werden.

Dies masked and not seeing Cherrie Noir of the two dominant ladies 
Sanya Pride and Lady Victoria stretched with a guide hook, it will be 
spanked, face sitting and made at the end, the lust of Cherrie Noir 
driven to extremes

Description: 

MENAGE A TROIS Die großbrüstige Kathleen White muss aus der Ferne mit 
ansehen, wie sich Jolanta Venus und Miss Eve bei einem Cocktail mit 
ihren gepumpten großen Mösen vergnügen. 

Das allein reicht den beiden Frauen allerdings nicht, und sie ergötzen 
sich an den riesigen Brüsten der Kathleen White. 

Bei einem romantischen Bad tauchen Jill Diamond und Yvette Costeau erst 
ein in die Welt des Fussfetisch und später in einen surrealen Tagtraum, 
in dem die Brüste und die Möse von Yvette Costeau gepumpt werden.

Die maskierte und nicht sehende Cherrie Noir wird von den beiden dominanten 
Damen Sanya Pride und Lady Victoria mit einem Führungshaken gedehnt, es 
wird gespankt, Facesitting gemacht und am Ende wird die Geilheit von Cherrie 
Noir bis zum Äußersten getrieben.
__________

Format                           : AVI
Format/Info                      : Audio Video Interleave
File size                        : 699 MiB
Duration                         : 1h 32mn
Overall bit rate                 : 1 056 Kbps
Writing application              : VirtualDubMod 1.5.10.2 (build 2540/release)
Writing library                  : VirtualDubMod build 2540/release

Video
ID                               : 0
Format                           : MPEG-4 Visual
Format profile                   : Advanced Simple@L5
Format settings, BVOP            : Yes
Format settings, QPel            : No
Format settings, GMC             : No warppoints
Format settings, Matrix          : Default (H.263)
Codec ID                         : XVID
Codec ID/Hint                    : XviD
Duration                         : 1h 32mn
Bit rate                         : 921 Kbps
Width                            : 576 pixels
Height                           : 432 pixels
Display aspect ratio             : 4:3
Frame rate                       : 25.000 fps
Color space                      : YUV
Chroma subsampling               : 4:2:0
Bit depth                        : 8 bits
Scan type                        : Progressive
Bits/(Pixel*Frame)               : 0.148
Stream size                      : 610 MiB (87%)
Writing library                  : XviD 1.2.1 (UTC 2008-12-04)

Audio
ID                               : 1
Format                           : MPEG Audio
Format version                   : Version 1
Format profile                   : Layer 3
Mode                             : Joint stereo
Mode extension                   : MS Stereo
Codec ID                         : 55
Codec ID/Hint                    : MP3
Duration                         : 1h 32mn
Bit rate mode                    : Variable
Bit rate                         : 128 Kbps
Channel(s)                       : 2 channels
Sampling rate                    : 48.0 KHz
Stream size                      : 80.9 MiB (12%)
Alignment                        : Aligned on interleaves
Interleave, duration             : 24 ms (0.60 video frame)
Interleave, preload duration     : 150 ms
Writing library                  : LAME3.90.
Encoding settings                : -m j -V 4 -q 2 -lowpass 17.6 --abr 128
__________

Enjoy:D